<?xml version="1.0" encoding="UTF-8"?>
<svg id="_Слой_1" data-name="Слой 1" xmlns="http://www.w3.org/2000/svg" viewBox="0 0 160.83 166.7">
  <defs>
    <style>
      .cls-1 {
        fill: #fff;
      }

      .cls-2 {
        fill: #a6c714;
      }
    </style>
  </defs>
  <g>
    <rect class="cls-2" width="160.83" height="166.7" rx="40" ry="40"/>
    <rect class="cls-2" width="160.83" height="166.7" rx="40" ry="40"/>
    <rect class="cls-2" width="160.83" height="166.7" rx="40" ry="40"/>
    <rect class="cls-2" width="160.83" height="166.7" rx="40" ry="40"/>
  </g>
  <path class="cls-1" d="M27.38,106.04l14.12,8.38c4.01-3.36,13.01,2.7,8.97,8.44l6.26,9.78,5.87-1.96c-2.19-6.72-1.99-11.94,0-16.04l1.08-2.84,15.36-14.77c1.82-1.16,3.69-.62,5.58,1.08l22.79,45.29c5.88-3.03,11.27-6.52,8.8-17.32l-10.66-35.51c-.65-3.89-.19-7.48,1.96-10.6l15.16-17.48,9.04-8.46c1.27-1.19,2.39-2.54,3.32-4.01,7.31-11.57.64-15.04-13.34-9.16l-32.09,19.17c-4.13,1.36-7.53.79-10.66-.49-18.56-6.18-38.79-13.58-45.29-10.86l-10.27,8.9,46.08,22.79c4.23,2.27,5.67,4.95,2.35,8.32l-14.58,11.45c-4.44,2.32-7.43,2.15-11.84,2.45-3.33-.49-6.96-.74-13.79-4.4l-4.21,7.83Z"/>
</svg>